
<svg xmlns="http://www.w3.org/2000/svg" version="1.1" xmlns:xlink="http://www.w3.org/1999/xlink" preserveAspectRatio="none" x="0px" y="0px" width="80px" height="90px" viewBox="0 0 80 90">
<defs>
<path id="Layer0_0_1_STROKES" stroke="#EE7003" stroke-width="3" stroke-linejoin="round" stroke-linecap="round" fill="none" d="
M 36.75 16.15
L 36.75 12.85 32.85 12.85 32.85 6.3 48.35 6.3 48.35 12.85 44.65 12.85 44.65 16.15
M 40.5 26.8
L 40.5 30.25
M 62.15 48.45
L 58.75 48.45
M 45.25 48.9
Q 45.1 50.7 43.85 51.95 42.4 53.35 40.4 53.35 38.4 53.35 36.95 51.95 35.55 50.55 35.55 48.5 35.55 46.5 36.95 45.1 38.2 43.85 39.9 43.7
M 27.65 35.55
L 25.25 33.1
M 22.4 48.45
L 19 48.45
M 25.25 63.6
L 27.7 61.2
M 40.5 66.55
L 40.5 70
M 55.75 63.65
L 53.3 61.2
M 44.65 12.85
L 36.75 12.85"/>

<path id="Layer0_0_2_STROKES" stroke="#005896" stroke-width="3" stroke-linejoin="round" stroke-linecap="round" fill="none" d="
M 65.4 27.85
Q 68.1 24.5 70.55 21.35 70.55 20 69.6 19.05 68.65 18.05 67.3 18.05
L 60.8 23.25
M 58 26.05
Q 58.05 26.1 58.1 26.15 59.35 27.2 60.55 28.35 61.65 29.45 62.6 30.65 68.9 38.25 68.9 48.5 68.9 60.3 60.55 68.65 52.2 77 40.4 77 28.65 77 20.4 68.75 20.35 68.7 20.3 68.65 11.95 60.3 11.95 48.5 11.95 38.25 18.25 30.65 19.2 29.45 20.3 28.35 20.35 28.3 20.4 28.25 21.55 27.1 22.85 26.05 30.35 20.05 40.4 20.05 50.45 20.05 58 26.05 Z
M 40.5 48.1
L 56.55 32.75
M 15.45 27.85
Q 12.75 24.5 10.25 21.35 10.25 20 11.2 19.05 12.2 18.05 13.55 18.05
L 20.05 23.25"/>
</defs>

<g transform="matrix( 1, 0, 0, 1, 0,0) ">
<use xlink:href="#Layer0_0_1_STROKES"/>

<use xlink:href="#Layer0_0_2_STROKES"/>
</g>
</svg>
