
<svg xmlns="http://www.w3.org/2000/svg" version="1.1" xmlns:xlink="http://www.w3.org/1999/xlink" preserveAspectRatio="none" x="0px" y="0px" width="80px" height="90px" viewBox="0 0 80 90">
<defs>
<path id="Layer0_0_1_STROKES" stroke="#005896" stroke-width="3" stroke-linejoin="round" stroke-linecap="round" fill="none" d="
M 56.4 37.9
L 50.35 42.1 44 29.1
M 67.95 41.35
Q 68.8 44.75 68.8 48.55 68.8 60.35 60.45 68.7 52.1 77.05 40.3 77.05 28.65 77.05 20.4 68.9 20.3 68.8 20.2 68.7 11.85 60.35 11.85 48.55 11.85 44.15 13.05 40.25
M 49.2 21.45
Q 53.9 22.9 57.9 26.1
M 24.45 37.9
L 30.35 42.1 36.75 29.1
M 22.35 26.45
Q 22.55 26.25 22.75 26.1 26.8 22.85 31.6 21.4
M 19.75 41.4
L 22.4 52.2 58.7 52.2 61.7 41.1"/>

<path id="Layer0_0_2_STROKES" stroke="#EE7003" stroke-width="3" stroke-linejoin="round" stroke-linecap="round" fill="none" d="
M 44.7 20.9
Q 44.7 22.65 43.45 23.9 42.2 25.2 40.4 25.2 38.6 25.2 37.35 23.9 36.1 22.65 36.1 20.9 36.1 19.1 37.35 17.8 38.6 16.55 40.4 16.55 42.2 16.55 43.45 17.8 44.7 19.1 44.7 20.9 Z
M 59.65 35.65
Q 59.85 35.95 60.15 36.25 61.2 37.35 62.7 37.55 62.95 37.55 63.2 37.55 65 37.55 66.25 36.25 67.5 35 67.5 33.25 67.5 31.45 66.25 30.15 65 28.9 63.2 28.9 61.4 28.9 60.15 30.15 58.9 31.45 58.9 33.25 58.9 34.6 59.65 35.65 Z
M 21.8 33.25
Q 21.8 34.6 21.05 35.65 20.85 35.95 20.55 36.25 20.5 36.35 20.4 36.4 19.6 37.2 18.6 37.45 18.05 37.55 17.5 37.55 15.7 37.55 14.45 36.25 13.2 35 13.2 33.25 13.2 31.45 14.45 30.15 15.7 28.9 17.5 28.9 19.2 28.9 20.4 30 20.5 30.1 20.55 30.15 21.8 31.45 21.8 33.25 Z
M 22.8 62.2
L 58.2 62.2
M 22.8 57.6
L 58.2 57.6"/>
</defs>

<g transform="matrix( 1, 0, 0, 1, 0,0) ">
<use xlink:href="#Layer0_0_1_STROKES"/>

<use xlink:href="#Layer0_0_2_STROKES"/>
</g>
</svg>
