
<svg xmlns="http://www.w3.org/2000/svg" version="1.1" xmlns:xlink="http://www.w3.org/1999/xlink" preserveAspectRatio="none" x="0px" y="0px" width="80px" height="90px" viewBox="0 0 80 90">
<defs>
<path id="Layer0_0_1_STROKES" stroke="#005896" stroke-width="3" stroke-linejoin="round" stroke-linecap="round" fill="none" d="
M 40.5 19.95
Q 50.55 19.95 58.1 25.95 58.15 26 58.2 26.05 59.45 27.1 60.65 28.25 61.75 29.35 62.7 30.55 69 38.15 69 48.4 69 60.2 60.65 68.55 60.3 68.9 59.95 69.25
M 50.4 75.25
Q 45.8 76.9 40.5 76.9 28.7 76.9 20.4 68.55 12.05 60.2 12.05 48.4 12.05 38.85 17.55 31.6
M 31.35 42.3
L 39 44.3 33.1 34.05
M 56.45 74.55
L 47.7 59.45 34.95 56
M 47.7 59.45
L 39 44.3 41 36.75
M 47.7 59.45
L 51.1 46.7"/>

<path id="Layer0_0_2_STROKES" stroke="#EE7004" stroke-width="3" stroke-linejoin="round" stroke-linecap="round" fill="none" d="
M 54.65 65.35
Q 62.35 52.55 55.75 40.55 45.95 22.75 25.8 21.25 17.05 39.45 27.6 56.8 34.7 68.5 49.6 68.25"/>
</defs>

<g transform="matrix( 1, 0, 0, 1, 0,0) ">
<use xlink:href="#Layer0_0_1_STROKES"/>

<use xlink:href="#Layer0_0_2_STROKES"/>
</g>
</svg>
